<svg width="64" height="64" viewBox="0 0 64 64" fill="none" xmlns="http://www.w3.org/2000/svg">
<g clip-path="url(#clip0_301_0)">
<rect x="18.7716" y="27.5446" width="3.95634" height="10.7713" transform="rotate(-13.7458 18.7716 27.5446)" stroke="#068DAA" stroke-linejoin="round"/>
<rect x="2.0437" y="33.5387" width="17.4784" height="6.39136" transform="rotate(-13.7458 2.0437 33.5387)" stroke="#068DAA" stroke-linejoin="round"/>
<path d="M12.2942 55.8213L8.11548 38.7387L16.7729 36.6209L20.9517 53.7035L12.2942 55.8213Z" stroke="#068DAA" stroke-linejoin="round"/>
<path d="M16.006 55.4181C16.5673 56.85 17.3386 59.3461 13.8419 62.9909" stroke="#068DAA" stroke-linecap="round"/>
<path d="M17.8937 55.0082C18.5897 56.3927 19.3994 59.5647 16.273 62.9998" stroke="#068DAA" stroke-linecap="round"/>
<path d="M45.7902 42.6931C47.0846 43.8284 48.6487 44.6125 50.3327 44.9707C52.0167 45.3289 53.7645 45.2491 55.4089 44.739C57.0533 44.2289 58.5394 43.3054 59.725 42.057C60.9106 40.8086 61.7562 39.2769 62.1809 37.6084C62.6055 35.9398 62.5951 34.1903 62.1505 32.5269C61.706 30.8636 60.8422 29.3421 59.6418 28.1079C58.4413 26.8737 56.9444 25.9681 55.294 25.4776C53.6436 24.9872 51.895 24.9282 50.2154 25.3065" stroke="#068DAA" stroke-linecap="round"/>
<path d="M33.0674 40.0154C33.1517 40.8905 33.459 41.7293 33.96 42.4517C34.461 43.174 35.1389 43.7558 35.929 44.1414C36.719 44.5269 37.5947 44.7034 38.4724 44.6539C39.3501 44.6043 40.2005 44.3305 40.9421 43.8585C41.6838 43.3866 42.292 42.7322 42.7086 41.9581C43.1251 41.184 43.3362 40.3159 43.3215 39.4369C43.3068 38.5579 43.0669 37.6974 42.6247 36.9376C42.1825 36.1779 41.5528 35.5442 40.7958 35.0973" stroke="#068DAA" stroke-linecap="round"/>
<path d="M31.7202 12.1663C31.5871 11.1784 31.2028 10.2411 30.6041 9.44408C30.0054 8.64707 29.2122 8.01697 28.3004 7.61402C27.3886 7.21108 26.3887 7.04876 25.3963 7.14258C24.4039 7.2364 23.4521 7.58323 22.632 8.1499C21.8118 8.71658 21.1508 9.48415 20.712 10.3792C20.2733 11.2743 20.0714 12.267 20.1258 13.2624C20.1802 14.2578 20.4891 15.2225 21.0228 16.0645C21.5565 16.9064 22.2973 17.5974 23.1743 18.0713" stroke="#068DAA" stroke-linecap="round"/>
<path d="M57.4986 19.8365C58.4468 19.4113 59.27 18.75 59.8896 17.9158C60.5092 17.0815 60.9045 16.1023 61.0376 15.0717C61.1708 14.0411 61.0373 12.9936 60.65 12.0293C60.2627 11.065 59.6345 10.2162 58.8255 9.56399C58.0165 8.91179 57.0537 8.47802 56.0292 8.30414C55.0047 8.13027 53.9527 8.22211 52.9738 8.57087C51.9949 8.91964 51.1219 9.51368 50.4381 10.2962C49.7544 11.0787 49.2828 12.0235 49.0684 13.0404" stroke="#068DAA" stroke-linecap="round"/>
<path d="M44.7879 7.13012C45.1051 6.5293 45.2629 5.85716 45.2462 5.17795C45.2295 4.49873 45.0388 3.83516 44.6924 3.25067C44.346 2.66619 43.8555 2.18032 43.2677 1.83954C42.68 1.49875 42.0146 1.31443 41.3353 1.30421C40.6559 1.29398 39.9853 1.45819 39.3875 1.78113C38.7898 2.10407 38.2849 2.57495 37.921 3.14875C37.5572 3.72255 37.3467 4.38008 37.3095 5.05848C37.2724 5.73688 37.4099 6.41347 37.7089 7.02356" stroke="#068DAA" stroke-linecap="round"/>
<path d="M32.6061 18.667C33.1586 17.4842 33.9997 16.4694 35.0488 15.7197C36.0979 14.9699 37.32 14.5103 38.5982 14.3847C39.8764 14.2592 41.168 14.4719 42.3496 15.0025C43.5311 15.5331 44.5631 16.3638 45.3468 17.4154C46.1305 18.4669 46.6398 19.704 46.8259 21.0084C47.0121 22.3129 46.8688 23.641 46.4099 24.8659C45.951 26.0908 45.1918 27.1714 44.2048 28.0045C43.2179 28.8376 42.0362 29.3953 40.7727 29.6243" stroke="#068DAA" stroke-linecap="round"/>
</g>
<defs>
<clipPath id="clip0_301_0">
<rect width="64" height="64" fill="white"/>
</clipPath>
</defs>
</svg>
