<svg width="62" height="70" viewBox="0 0 62 70" fill="none" xmlns="http://www.w3.org/2000/svg">
<path d="M35.4154 16.8704C35.4154 17.5234 34.8403 18.1076 34.061 18.1076C33.2817 18.1076 32.7065 17.5234 32.7065 16.8704C32.7065 16.2173 33.2817 15.6331 34.061 15.6331C34.8403 15.6331 35.4154 16.2173 35.4154 16.8704Z" stroke="#068DAA" stroke-linecap="round" stroke-linejoin="round"/>
<path d="M25.9909 38.8527C29.851 39.1309 37.7499 40.1095 40.5815 46.7965C43.4131 53.4836 40.5815 63.4066 33.4235 66.9797C26.2655 70.5529 19.3624 68.2752 10.459 61.7088C1.55564 55.1424 -0.548814 41.188 2.0165 32.8972C4.58181 24.6063 12.5934 18.4819 16.0972 15.8371M25.3437 20.9207C22.1929 20.6018 15.7549 18.9605 14.8224 12.0952C13.8899 5.22992 20.8724 1.00009 25.6771 1.00009C30.4818 1.0001 35.5023 4.02006 36.5024 10.5196C40.6763 10.8822 48.6842 12.2406 50.1713 14.9651C51.6585 17.6896 52.6176 16.7515 53.108 17.6896C53.5984 18.6277 52.3874 18.5761 51.2794 20.3485C50.1713 22.121 50.9754 22.3462 44.7587 25.1505C38.542 27.9548 35.9827 33.507 37.1888 42.3887M60.9526 37.7479C61.305 43.8323 59.6864 49.8725 56.3178 55.0446C52.9491 60.2168 47.9944 64.269 42.1293 66.6487C36.2643 69.0283 29.7746 69.6195 23.5453 68.3415" stroke="#068DAA" stroke-linecap="round" stroke-linejoin="round"/>
</svg>
