<svg width="70" height="69" viewBox="0 0 70 69" fill="none" xmlns="http://www.w3.org/2000/svg">
<path d="M39.5391 5.50529L43.9318 0.999985" stroke="#068DAA" stroke-linecap="round" stroke-linejoin="round"/>
<path d="M29.8751 5.74557L25.3066 0.999985" stroke="#068DAA" stroke-linecap="round" stroke-linejoin="round"/>
<path d="M55.2363 21.2437L61.6791 16.4982" stroke="#068DAA" stroke-linecap="round" stroke-linejoin="round"/>
<path d="M14.7646 21.2437L8.32191 16.4982" stroke="#068DAA" stroke-linecap="round" stroke-linejoin="round"/>
<path d="M61.269 40.4665H69.0003" stroke="#068DAA" stroke-linecap="round" stroke-linejoin="round"/>
<path d="M8.73145 40.4665H1.00016" stroke="#068DAA" stroke-linecap="round" stroke-linejoin="round"/>
<path d="M51.8389 62.2722L58.633 66.8977" stroke="#068DAA" stroke-linecap="round" stroke-linejoin="round"/>
<path d="M18.1611 62.2722L11.367 66.8977" stroke="#068DAA" stroke-linecap="round" stroke-linejoin="round"/>
<path d="M60.9447 39.9257C60.9447 55.7531 49.298 68.5 35.0295 68.5C20.7609 68.5 9.11426 55.7531 9.11426 39.9257C9.11426 24.0984 20.7609 11.3515 35.0295 11.3515C49.298 11.3515 60.9447 24.0984 60.9447 39.9257Z" stroke="#068DAA" stroke-linecap="round" stroke-linejoin="round"/>
<path d="M46.3337 13.6149C46.3337 11.2889 45.1428 9.0581 43.0228 7.41334C40.9029 5.76859 38.0277 4.84457 35.0297 4.84457C32.0316 4.84457 29.1564 5.76859 27.0365 7.41334C24.9165 9.0581 23.7256 11.2889 23.7256 13.6149" stroke="#068DAA" stroke-linecap="round" stroke-linejoin="round"/>
<path d="M51.5583 17.8032C50.0571 20.178 47.7102 22.1825 44.7859 23.5874C41.8617 24.9923 38.4781 25.7409 35.0223 25.7475C31.5666 25.7542 28.1781 25.0186 25.2446 23.625C22.311 22.2314 19.9509 20.236 18.4341 17.867" stroke="#068DAA" stroke-linecap="round" stroke-linejoin="round"/>
<path d="M34.9963 26.6303C34.9963 37.0624 34.7372 58.9284 48.0713 64.5865" stroke="#068DAA" stroke-linecap="round" stroke-linejoin="round"/>
<path d="M34.9962 26.1889C34.9962 36.621 35.255 58.9284 21.9209 64.5865" stroke="#068DAA" stroke-linecap="round" stroke-linejoin="round"/>
</svg>
