<svg width="62" height="63" viewBox="0 0 62 63" fill="none" xmlns="http://www.w3.org/2000/svg">
<path d="M23.1816 11.6189C26.5882 11.4392 29.9946 11.9743 33.1819 13.1899C36.3692 14.4055 39.2668 16.2747 41.6884 18.6773C44.1101 21.0799 46.0021 23.9627 47.2428 27.1403C48.4835 30.3179 49.0455 33.72 48.8926 37.1278" stroke="#068DAA" stroke-linecap="round"/>
<path d="M19.1392 12.6859C14.819 16.7114 12.9106 21.5868 12.8245 26.4111C12.7297 31.7232 14.8438 36.9457 18.3208 40.8879C21.7988 44.8313 26.6647 47.5195 32.0931 47.7154C37.1695 47.8986 42.6741 45.9002 47.9324 40.8268C47.15 44.6555 45.4405 48.2431 42.9438 51.27C40.1138 54.7009 36.3844 57.2759 32.1733 58.7065C27.9623 60.1371 23.436 60.3668 19.1018 59.3698C14.7676 58.3728 10.7966 56.1886 7.6339 53.0618C4.47119 49.935 2.2417 45.9892 1.19526 41.6667C0.148829 37.3441 0.326799 32.8156 1.70923 28.5885C3.09166 24.3613 5.62393 20.6027 9.02227 17.7338C11.9501 15.2621 15.4211 13.5349 19.1392 12.6859Z" stroke="#068DAA" stroke-linecap="round" stroke-linejoin="round"/>
<path d="M24.4702 0.719727V8.86878" stroke="#068DAA" stroke-linecap="round"/>
<path d="M49.645 10.2852L43.7143 15.8738" stroke="#068DAA" stroke-linecap="round"/>
<path d="M61.0056 36.5713H56.9313H52.8571" stroke="#068DAA" stroke-linecap="round"/>
<path d="M49.353 61.8828L43.7143 56.0003" stroke="#068DAA" stroke-linecap="round"/>
</svg>
