
<svg width="492" height="718" viewBox="0 0 492 718" fill="none" xmlns="http://www.w3.org/2000/svg">
<g filter="url(#filter0_d_228_958)">
<path d="M743.393 307.313C741.041 296.582 738.215 286.037 734.914 275.677C720.715 229.864 697.564 187.315 666.796 150.487C636.029 113.659 598.256 83.2826 555.66 61.1133C513.063 38.9439 466.489 25.421 418.627 21.3258C370.765 17.2307 322.564 22.6446 276.81 37.2546C231.057 51.8647 188.657 75.3812 152.06 106.445C115.464 137.51 85.3968 175.506 63.5964 218.238C41.7959 260.97 28.6943 307.592 25.0486 355.409C21.4029 403.225 27.2853 451.289 42.356 496.823C48.895 516.829 57.1796 536.223 67.1145 554.782C105.122 626.158 165.784 682.924 239.589 716.178C249.533 720.668 259.694 724.694 270.072 728.258C331.114 749.219 396.644 753.583 459.934 740.899C523.223 728.215 581.989 698.942 630.197 656.085C678.404 613.229 714.315 558.335 734.242 497.041C754.168 435.747 757.391 370.262 743.579 307.313H743.393ZM119.107 590.373C73.9116 531.495 49.4356 459.377 49.474 385.2C49.4228 321.621 67.3342 259.317 101.152 205.442C134.969 151.567 183.321 108.305 240.656 80.6245C297.99 52.9436 361.983 41.9661 425.285 48.9523C488.587 55.9386 548.632 80.6055 598.525 120.12C618.843 159.645 631.088 202.808 634.549 247.099C618.483 244.974 602.29 243.942 586.084 244.009C490.2 243.982 398.19 281.783 330.1 349.177C262.01 416.571 223.359 508.096 222.567 603.813C222.567 604.801 222.567 605.79 222.567 606.902C222.567 614.44 222.804 621.938 223.279 629.394C224.403 648 226.98 666.49 230.985 684.696C187.28 661.729 149.104 629.544 119.107 590.373ZM586.084 268.571C597.194 268.571 608.15 269.158 618.982 270.208L518.741 357.023L529.449 273.329C548.16 270.16 567.105 268.569 586.084 268.571ZM490.64 381.338L423.916 439.142L441.618 300.887C461.575 291.467 482.41 284.027 503.824 278.674L490.64 381.338ZM395.815 463.457L330.081 520.396L355.892 358.846C373.859 342.186 393.573 327.508 414.693 315.068L395.815 463.457ZM300.99 545.606L247.635 591.949C250.866 518.134 278.324 447.429 325.779 390.73L300.99 545.606ZM324.355 557.964L441.618 579.436C396.376 600.864 346.918 611.956 296.843 611.907C285.763 611.907 274.777 611.32 263.945 610.27L324.355 557.964ZM476.001 560.591L348.278 537.234L416.674 477.977L544.242 504.423C524.061 526.075 501.13 544.999 476.032 560.714L476.001 560.591ZM562.656 483.013L440.133 457.617L506.857 399.813H611.183C599.109 429.755 582.798 457.815 562.749 483.137L562.656 483.013ZM619.941 375.097H535.484L635.261 288.591C634.001 318.008 628.881 347.133 620.034 375.22L619.941 375.097ZM388.356 723.315C344.301 723.361 300.664 714.775 259.921 698.042C253.986 676.957 250.14 655.339 248.44 633.503C264.516 635.626 280.719 636.658 296.935 636.592C392.759 636.458 484.663 598.601 552.698 531.238C620.732 463.876 659.408 372.444 660.329 276.789C660.329 275.8 660.329 274.812 660.329 273.7C660.329 266.161 660.112 258.654 659.617 251.208C657.777 220.849 652.078 190.846 642.657 161.921C669.077 191.883 689.98 226.274 704.399 263.504C708.236 273.329 711.589 283.39 714.457 293.689C728.587 343.955 730.869 396.805 721.125 448.099C711.38 499.393 689.874 547.739 658.289 589.35C626.704 630.962 585.899 664.71 539.069 687.951C492.238 711.193 440.654 723.296 388.356 723.315Z" fill="#FDFDFD"/>
</g>
<defs>
<filter id="filter0_d_228_958" x="0" y="0" width="776" height="776" filterUnits="userSpaceOnUse" color-interpolation-filters="sRGB">
<feFlood flood-opacity="0" result="BackgroundImageFix"/>
<feColorMatrix in="SourceAlpha" type="matrix" values="0 0 0 0 0 0 0 0 0 0 0 0 0 0 0 0 0 0 127 0" result="hardAlpha"/>
<feOffset dy="4"/>
<feGaussianBlur stdDeviation="12"/>
<feColorMatrix type="matrix" values="0 0 0 0 0 0 0 0 0 0 0 0 0 0 0 0 0 0 0.04 0"/>
<feBlend mode="normal" in2="BackgroundImageFix" result="effect1_dropShadow_228_958"/>
<feBlend mode="normal" in="SourceGraphic" in2="effect1_dropShadow_228_958" result="shape"/>
</filter>
</defs>
</svg>
