<svg width="17" height="16" viewBox="0 0 17 16" fill="none" xmlns="http://www.w3.org/2000/svg">
<g clip-path="url(#clip0_1363_4593)">
<path d="M14.6949 1.56181C14.2747 1.19447 12.581 0.027599 8.80634 0.0131932C8.80634 0.0131932 4.3557 -0.241309 2.18608 1.64585C0.978488 2.7911 0.555703 4.46698 0.510133 6.54381C0.464564 8.62064 0.406336 12.5174 4.36583 13.5714H4.36836L4.36583 15.1825C4.36583 15.1825 4.34051 15.8355 4.79368 15.9676C5.34051 16.1284 5.66203 15.6338 6.18608 15.0984C6.47216 14.8055 6.86963 14.3733 7.16836 14.0444C9.87469 14.2605 11.9582 13.7659 12.1937 13.6939C12.7405 13.5258 15.8342 13.1488 16.3354 9.25689C16.857 5.24489 16.0848 2.70707 14.6949 1.56181ZM15.1532 8.97118C14.7279 12.2221 12.219 12.4262 11.7557 12.5678C11.5582 12.6278 9.73039 13.06 7.43165 12.916C7.43165 12.916 5.71773 14.8775 5.18355 15.3865C5.10001 15.4658 5.00127 15.4994 4.93545 15.4826C4.84431 15.461 4.81899 15.3577 4.81899 15.2065C4.82153 14.9904 4.83418 12.5294 4.83418 12.5294C4.83165 12.5294 4.83418 12.5294 4.83418 12.5294C1.48482 11.6458 1.68229 8.33252 1.72026 6.59663C1.75823 4.86073 2.10254 3.43936 3.12279 2.48378C4.95823 0.906351 8.73798 1.14405 8.73798 1.14405C11.9304 1.15605 13.4595 2.06842 13.8139 2.37334C14.9911 3.32892 15.5911 5.61704 15.1532 8.97118Z" fill="#068DAA"/>
<path d="M10.3609 6.65539C10.247 6.65539 10.1533 6.57136 10.1482 6.46331C10.1128 5.77664 9.771 5.4381 9.0748 5.40449C8.95835 5.39969 8.86721 5.30365 8.87227 5.1908C8.87733 5.08036 8.9786 4.99392 9.09759 4.99873C10.0166 5.04434 10.528 5.54374 10.5761 6.4417C10.5811 6.55215 10.49 6.64819 10.3735 6.65299C10.3659 6.65539 10.3634 6.65539 10.3609 6.65539Z" fill="#068DAA"/>
<path d="M11.4546 7.00359C11.4521 7.00359 11.4521 7.00359 11.4496 7.00359C11.3306 7.00119 11.2394 6.90755 11.242 6.79711C11.2572 6.10563 11.0496 5.54621 10.604 5.08522C10.161 4.62664 9.55084 4.37454 8.74577 4.31932C8.62932 4.31212 8.54071 4.21368 8.54831 4.10323C8.5559 3.99279 8.6597 3.90876 8.77615 3.91596C9.68501 3.97838 10.4065 4.2809 10.9205 4.81151C11.4344 5.34453 11.6875 6.01679 11.6698 6.80671C11.6648 6.91475 11.5711 7.00359 11.4546 7.00359Z" fill="#068DAA"/>
<path d="M12.576 7.41908C12.4595 7.41908 12.3633 7.33025 12.3633 7.2174C12.3532 5.99531 11.9684 5.02533 11.2139 4.32905C10.4595 3.63277 9.50761 3.27503 8.38356 3.26782C8.26457 3.26782 8.1709 3.17659 8.1709 3.06374C8.1709 2.9533 8.2671 2.86206 8.38356 2.86206C8.38356 2.86206 8.38356 2.86206 8.38609 2.86206C9.62406 2.86926 10.6772 3.26542 11.5127 4.03853C12.3506 4.81164 12.7785 5.88007 12.7912 7.215C12.7912 7.32785 12.6949 7.41908 12.576 7.41908Z" fill="#068DAA"/>
<path d="M9.12765 9.16438C9.12765 9.16438 9.42892 9.18839 9.58841 8.99871L9.90233 8.62417C10.0542 8.43689 10.4213 8.31924 10.7808 8.50892C11.0492 8.65538 11.3099 8.81144 11.5631 8.98191C11.8011 9.14757 12.2897 9.53413 12.2897 9.53413C12.5226 9.7214 12.5758 9.99271 12.4163 10.2808C12.4163 10.2832 12.4163 10.2856 12.4163 10.2856C12.2416 10.5713 12.0213 10.8306 11.7606 11.0515C11.758 11.0539 11.758 11.0539 11.7555 11.0563C11.5302 11.2364 11.3074 11.3373 11.0897 11.3613C11.0568 11.3661 11.0239 11.3685 10.9935 11.3661C10.8973 11.3661 10.8011 11.3541 10.7099 11.3252L10.7023 11.3156C10.3656 11.2268 9.80613 11.0011 8.87195 10.5137C8.33271 10.2352 7.81879 9.91348 7.33525 9.55094C7.09221 9.37086 6.86183 9.17639 6.64411 8.9699L6.62132 8.9483L6.59854 8.92669L6.57575 8.90508C6.56816 8.89787 6.56056 8.89067 6.55297 8.88347C6.33525 8.67699 6.13018 8.4561 5.94031 8.22801C5.55803 7.76942 5.21879 7.28203 4.92512 6.77062C4.41119 5.88467 4.17322 5.35406 4.07955 5.03473L4.06942 5.02753C4.03904 4.94109 4.02638 4.84985 4.02638 4.75862C4.02385 4.72741 4.02638 4.69619 4.03145 4.66738C4.0593 4.4609 4.16562 4.24961 4.35297 4.03593C4.3555 4.03353 4.3555 4.03353 4.35803 4.03113C4.59094 3.78383 4.86183 3.57494 5.16562 3.40928C5.16816 3.40928 5.17069 3.40688 5.17069 3.40688C5.47449 3.25802 5.76309 3.30844 5.95803 3.52692C5.96056 3.52933 6.36562 3.99031 6.54031 4.216C6.72006 4.4561 6.88714 4.7034 7.03904 4.9579C7.23904 5.29883 7.11499 5.64697 6.91752 5.79103L6.52259 6.08875C6.32259 6.24241 6.3479 6.52572 6.3479 6.52572C6.3479 6.52572 6.93271 8.63377 9.12765 9.16438Z" fill="#068DAA"/>
</g>
<defs>
<clipPath id="clip0_1363_4593">
<rect width="16" height="16" fill="white" transform="translate(0.5)"/>
</clipPath>
</defs>
</svg>
