
<svg width="763" height="723" viewBox="0 0 763 723" fill="none" xmlns="http://www.w3.org/2000/svg">
<path d="M693.646 0C712.962 32.3325 728.411 66.9163 739.609 103.049C743.935 116.625 747.639 130.445 750.722 144.507H750.965C769.064 226.997 764.841 312.811 738.729 393.133C712.617 473.455 665.557 545.391 602.384 601.551C539.211 657.712 462.201 696.073 379.265 712.694C296.328 729.316 210.454 723.598 130.463 696.129C116.863 691.46 103.548 686.183 90.5157 680.299C58.2763 665.773 27.9505 647.823 0 626.882M654.217 0C672.501 27.2161 687.741 56.4212 699.621 87.0975C704.65 99.9721 709.044 113.157 712.802 126.652C731.319 192.524 734.31 261.78 721.54 328.998C708.77 396.215 680.587 459.57 639.197 514.099C597.807 568.629 544.335 612.854 482.966 643.31C421.598 673.766 354 689.627 285.467 689.651C227.735 689.712 170.552 678.46 117.161 656.534C109.382 628.902 104.343 600.574 102.115 571.958C123.182 574.741 144.414 576.094 165.665 576.007C291.236 575.831 411.67 526.222 500.826 437.947C589.982 349.672 640.664 229.856 641.87 104.507C641.87 103.211 641.87 101.915 641.87 100.458C641.87 90.5793 641.586 80.7412 640.937 70.984C639.489 47.0857 636.216 23.356 631.157 0M597.923 0C602.952 21.5295 606.357 43.4569 608.087 65.5994C587.034 62.8153 565.815 61.4626 544.577 61.5508C418.927 61.5145 298.353 111.05 209.126 199.366C119.898 287.682 69.248 407.621 68.2101 533.051C68.2101 534.347 68.2101 535.642 68.2101 537.1C68.2101 546.978 68.521 556.803 69.1429 566.574C70.616 590.956 73.9924 615.186 79.2412 639.044C50.915 624.158 24.3613 606.318 0 585.877M544.577 93.7372C559.137 93.7372 573.493 94.5064 587.688 95.883L456.328 209.649L470.36 99.972C494.88 95.8198 519.707 93.7341 544.577 93.7372ZM419.503 241.511L332.065 317.261L355.263 136.086C381.415 123.742 408.719 113.992 436.78 106.976L419.503 241.511ZM295.241 349.123L209.101 423.739L242.924 212.037C266.469 190.205 292.303 170.971 319.98 154.669L295.241 349.123ZM170.978 456.775L101.06 517.505C105.294 420.775 141.277 328.12 203.463 253.819L170.978 456.775ZM201.598 472.97L355.263 501.108C295.976 529.187 231.165 543.723 165.544 543.659C151.025 543.659 136.628 542.889 122.433 541.513L201.598 472.97ZM400.321 476.411L232.947 445.804L322.575 368.152L489.746 402.808C463.3 431.181 433.25 455.98 400.361 476.573L400.321 476.411ZM513.876 374.751L353.316 341.471L440.755 265.722H577.468C561.645 304.959 540.272 341.73 513.998 374.913L513.876 374.751ZM588.945 233.333H478.269L609.02 119.972C607.369 158.521 600.661 196.688 589.067 233.495L588.945 233.333Z" stroke="url(#paint0_linear_1055_1013)" stroke-miterlimit="10"/>
<defs>
<linearGradient id="paint0_linear_1055_1013" x1="-153.498" y1="-210.075" x2="388.822" y2="785.793" gradientUnits="userSpaceOnUse">
<stop stop-color="#67BFD1"/>
<stop offset="1" stop-color="white" stop-opacity="0"/>
</linearGradient>
</defs>
</svg>
