<svg width="16" height="16" viewBox="0 0 16 16" fill="none" xmlns="http://www.w3.org/2000/svg">
<g clip-path="url(#clip0_1363_4434)">
<path d="M0.521484 15.4329L1.5831 11.5702C0.76348 10.1479 0.436092 8.49485 0.651707 6.8675C0.867322 5.24015 1.61389 3.72943 2.77562 2.56963C3.93735 1.40984 5.44932 0.665787 7.07703 0.452885C8.70473 0.239983 10.3572 0.570127 11.7781 1.39211C13.1991 2.2141 14.3091 3.48199 14.936 4.99913C15.5629 6.51628 15.6717 8.19789 15.2455 9.78316C14.8192 11.3684 13.8818 12.7688 12.5786 13.767C11.2754 14.7652 9.67926 15.3054 8.03769 15.304C6.7923 15.3035 5.56693 14.9906 4.47371 14.3941L0.521484 15.4329ZM4.65722 13.0473L4.88471 13.1816C5.83943 13.7465 6.92833 14.0448 8.03769 14.0453C9.41148 14.0451 10.7463 13.5884 11.8323 12.747C12.9182 11.9056 13.6938 10.7272 14.0371 9.39701C14.3804 8.06681 14.272 6.66023 13.7288 5.39838C13.1856 4.13653 12.2386 3.09095 11.0364 2.42599C9.83428 1.76103 8.44525 1.51439 7.08768 1.72485C5.7301 1.9353 4.48094 2.59091 3.53656 3.58863C2.59217 4.58635 2.0061 5.8696 1.87047 7.23668C1.73484 8.60376 2.05733 9.97716 2.78727 11.141L2.93892 11.3753L2.31257 13.6623L4.65722 13.0473Z" fill="#068DAA"/>
<path fill-rule="evenodd" clip-rule="evenodd" d="M6.17802 4.72729C6.03773 4.41639 5.89138 4.41033 5.75868 4.40502C5.64949 4.39819 5.52513 4.39819 5.40153 4.39819C5.30708 4.40062 5.21417 4.42264 5.12867 4.46284C5.04318 4.50304 4.96696 4.56056 4.90484 4.63175C4.73347 4.81829 4.25195 5.26871 4.25195 6.18549C4.25195 7.10227 4.92001 7.98795 5.01025 8.11231C5.10048 8.23667 6.29935 10.1779 8.19508 10.9248C9.7693 11.5459 10.0908 11.4223 10.4313 11.3912C10.7718 11.3601 11.5338 10.9407 11.6885 10.5055C11.8432 10.0702 11.8402 9.69715 11.7977 9.6198C11.7553 9.54246 11.6264 9.49544 11.4406 9.40217C11.2548 9.3089 10.338 8.85847 10.1674 8.79554C9.99679 8.7326 9.87243 8.70227 9.74806 8.88881C9.6237 9.07535 9.26655 9.49544 9.15811 9.61904C9.04968 9.74264 8.94048 9.75857 8.75394 9.6653C8.5674 9.57203 7.96759 9.37563 7.25555 8.74094C6.84831 8.36512 6.49876 7.93125 6.21821 7.45336C6.10977 7.26758 6.20683 7.16672 6.3001 7.07421C6.39337 6.9817 6.48664 6.85658 6.57991 6.74814C6.65658 6.65406 6.71917 6.54933 6.7657 6.43724C6.79048 6.38592 6.80207 6.32922 6.79942 6.27229C6.79677 6.21536 6.77997 6.15998 6.75053 6.11118C6.70579 6.01715 6.34333 5.09582 6.17802 4.72729Z" fill="#068DAA"/>
</g>
<defs>
<clipPath id="clip0_1363_4434">
<rect width="16" height="16" fill="white"/>
</clipPath>
</defs>
</svg>
