<svg width="80" height="80" viewBox="0 0 80 80" fill="none" xmlns="http://www.w3.org/2000/svg">
<rect width="80" height="80" fill="#FDFDFD"/>
<path d="M44.5391 10.5053L48.9318 6" stroke="#C8E5EB" stroke-linecap="round" stroke-linejoin="round"/>
<path d="M34.8751 10.7456L30.3066 6" stroke="#C8E5EB" stroke-linecap="round" stroke-linejoin="round"/>
<path d="M60.2363 26.2436L66.6791 21.498" stroke="#C8E5EB" stroke-linecap="round" stroke-linejoin="round"/>
<path d="M19.7646 26.2436L13.3219 21.498" stroke="#C8E5EB" stroke-linecap="round" stroke-linejoin="round"/>
<path d="M66.2686 45.4668H73.9998" stroke="#C8E5EB" stroke-linecap="round" stroke-linejoin="round"/>
<path d="M13.7314 45.4668H6.00016" stroke="#C8E5EB" stroke-linecap="round" stroke-linejoin="round"/>
<path d="M56.8389 67.2725L63.633 71.8979" stroke="#C8E5EB" stroke-linecap="round" stroke-linejoin="round"/>
<path d="M23.1611 67.2725L16.367 71.8979" stroke="#C8E5EB" stroke-linecap="round" stroke-linejoin="round"/>
<path d="M65.9447 44.9258C65.9447 60.7531 54.298 73.5 40.0295 73.5C25.7609 73.5 14.1143 60.7531 14.1143 44.9258C14.1143 29.0985 25.7609 16.3516 40.0295 16.3516C54.298 16.3516 65.9447 29.0985 65.9447 44.9258Z" stroke="#C8E5EB" stroke-linecap="round" stroke-linejoin="round"/>
<path d="M51.3337 18.6151C51.3337 16.289 50.1428 14.0583 48.0228 12.4135C45.9029 10.7687 43.0277 9.84473 40.0297 9.84473C37.0316 9.84473 34.1564 10.7687 32.0365 12.4135C29.9165 14.0583 28.7256 16.289 28.7256 18.6151" stroke="#C8E5EB" stroke-linecap="round" stroke-linejoin="round"/>
<path d="M56.5578 22.8037C55.0567 25.1785 52.7097 27.183 49.7855 28.5879C46.8612 29.9928 43.4776 30.7413 40.0219 30.748C36.5661 30.7546 33.1776 30.0191 30.2441 28.6255C27.3106 27.2319 24.9504 25.2364 23.4336 22.8675" stroke="#C8E5EB" stroke-linecap="round" stroke-linejoin="round"/>
<path d="M39.9963 31.6299C39.9963 42.062 39.7372 63.9281 53.0713 69.5861" stroke="#C8E5EB" stroke-linecap="round" stroke-linejoin="round"/>
<path d="M39.9962 31.1885C39.9962 41.6205 40.255 63.928 26.9209 69.5861" stroke="#C8E5EB" stroke-linecap="round" stroke-linejoin="round"/>
</svg>
