
<svg width="80" height="80" viewBox="0 0 80 80" fill="none" xmlns="http://www.w3.org/2000/svg">
<path d="M39.5391 5.5053L43.9318 1" stroke="#C8E5EB" stroke-linecap="round" stroke-linejoin="round"/>
<path d="M29.8751 5.74559L25.3066 1" stroke="#C8E5EB" stroke-linecap="round" stroke-linejoin="round"/>
<path d="M55.2363 21.2436L61.6791 16.498" stroke="#C8E5EB" stroke-linecap="round" stroke-linejoin="round"/>
<path d="M14.7646 21.2436L8.32191 16.498" stroke="#C8E5EB" stroke-linecap="round" stroke-linejoin="round"/>
<path d="M61.269 40.4668H69.0003" stroke="#C8E5EB" stroke-linecap="round" stroke-linejoin="round"/>
<path d="M8.73145 40.4668H1.00016" stroke="#C8E5EB" stroke-linecap="round" stroke-linejoin="round"/>
<path d="M51.8389 62.2725L58.633 66.8979" stroke="#C8E5EB" stroke-linecap="round" stroke-linejoin="round"/>
<path d="M18.1611 62.2725L11.367 66.8979" stroke="#C8E5EB" stroke-linecap="round" stroke-linejoin="round"/>
<path d="M60.9447 39.9258C60.9447 55.7531 49.298 68.5 35.0295 68.5C20.7609 68.5 9.11426 55.7531 9.11426 39.9258C9.11426 24.0985 20.7609 11.3516 35.0295 11.3516C49.298 11.3516 60.9447 24.0985 60.9447 39.9258Z" stroke="#C8E5EB" stroke-linecap="round" stroke-linejoin="round"/>
<path d="M46.3337 13.6151C46.3337 11.289 45.1428 9.05825 43.0228 7.4135C40.9029 5.76874 38.0277 4.84473 35.0297 4.84473C32.0316 4.84473 29.1564 5.76874 27.0365 7.4135C24.9165 9.05825 23.7256 11.289 23.7256 13.6151" stroke="#C8E5EB" stroke-linecap="round" stroke-linejoin="round"/>
<path d="M51.5583 17.8037C50.0571 20.1785 47.7102 22.183 44.7859 23.5879C41.8617 24.9928 38.4781 25.7413 35.0223 25.748C31.5666 25.7546 28.1781 25.0191 25.2446 23.6255C22.311 22.2319 19.9509 20.2364 18.4341 17.8675" stroke="#C8E5EB" stroke-linecap="round" stroke-linejoin="round"/>
<path d="M34.9963 26.6299C34.9963 37.062 34.7372 58.9281 48.0713 64.5861" stroke="#C8E5EB" stroke-linecap="round" stroke-linejoin="round"/>
<path d="M34.9962 26.1885C34.9962 36.6205 35.255 58.928 21.9209 64.5861" stroke="#C8E5EB" stroke-linecap="round" stroke-linejoin="round"/>
</svg>
