
<svg width="80" height="80" viewBox="0 0 80 80" fill="none" xmlns="http://www.w3.org/2000/svg">
<circle cx="40" cy="40" r="39.5" stroke="#C8E5EB"/>
<g clip-path="url(#clip0_234_6806)">
<path d="M34.6675 40C34.6675 37.0546 37.0546 34.6662 40 34.6662C42.9454 34.6662 45.3338 37.0546 45.3338 40C45.3338 42.9454 42.9454 45.3338 40 45.3338C37.0546 45.3338 34.6675 42.9454 34.6675 40ZM31.7842 40C31.7842 44.5376 35.4624 48.2158 40 48.2158C44.5376 48.2158 48.2158 44.5376 48.2158 40C48.2158 35.4624 44.5376 31.7842 40 31.7842C35.4624 31.7842 31.7842 35.4624 31.7842 40ZM46.621 31.4585C46.621 32.5183 47.4805 33.379 48.5415 33.379C49.6013 33.379 50.462 32.5183 50.462 31.4585C50.462 30.3987 49.6026 29.5393 48.5415 29.5393C47.4805 29.5393 46.621 30.3987 46.621 31.4585ZM33.5354 53.0236C31.9754 52.9525 31.1276 52.6927 30.5641 52.473C29.8171 52.1822 29.2847 51.8359 28.7237 51.2763C28.1641 50.7166 27.8165 50.1842 27.527 49.4372C27.3073 48.8737 27.0475 48.0258 26.9764 46.4659C26.8989 44.7793 26.8834 44.2727 26.8834 40C26.8834 35.7273 26.9002 35.222 26.9764 33.5341C27.0475 31.9742 27.3086 31.1276 27.527 30.5628C27.8178 29.8158 28.1641 29.2834 28.7237 28.7225C29.2834 28.1628 29.8158 27.8152 30.5641 27.5257C31.1276 27.306 31.9754 27.0462 33.5354 26.9751C35.222 26.8976 35.7286 26.8821 40 26.8821C44.2727 26.8821 44.778 26.8989 46.4659 26.9751C48.0258 27.0462 48.8724 27.3073 49.4372 27.5257C50.1842 27.8152 50.7166 28.1628 51.2775 28.7225C51.8372 29.2821 52.1835 29.8158 52.4743 30.5628C52.694 31.1263 52.9538 31.9742 53.0249 33.5341C53.1024 35.222 53.1179 35.7273 53.1179 40C53.1179 44.2714 53.1024 44.778 53.0249 46.4659C52.9538 48.0258 52.6927 48.8737 52.4743 49.4372C52.1835 50.1842 51.8372 50.7166 51.2775 51.2763C50.7179 51.8359 50.1842 52.1822 49.4372 52.473C48.8737 52.6927 48.0258 52.9525 46.4659 53.0236C44.7793 53.1011 44.2727 53.1166 40 53.1166C35.7286 53.1166 35.222 53.1011 33.5354 53.0236ZM33.4036 24.0969C31.7002 24.1745 30.537 24.4446 29.5199 24.8401C28.4679 25.2485 27.5761 25.7964 26.6856 26.6856C25.7964 27.5748 25.2485 28.4666 24.8401 29.5199C24.4446 30.537 24.1745 31.7002 24.0969 33.4036C24.0181 35.1095 24 35.6549 24 40C24 44.3451 24.0181 44.8905 24.0969 46.5964C24.1745 48.2998 24.4446 49.463 24.8401 50.4801C25.2485 51.5321 25.7952 52.4252 26.6856 53.3144C27.5748 54.2036 28.4666 54.7502 29.5199 55.1599C30.5383 55.5554 31.7002 55.8255 33.4036 55.9031C35.1108 55.9806 35.6549 56 40 56C44.3464 56 44.8905 55.9819 46.5964 55.9031C48.2998 55.8255 49.463 55.5554 50.4801 55.1599C51.5321 54.7502 52.4239 54.2036 53.3144 53.3144C54.2036 52.4252 54.7502 51.5321 55.1599 50.4801C55.5554 49.463 55.8268 48.2998 55.9031 46.5964C55.9806 44.8892 55.9987 44.3451 55.9987 40C55.9987 35.6549 55.9806 35.1095 55.9031 33.4036C55.8255 31.7002 55.5554 30.537 55.1599 29.5199C54.7502 28.4679 54.2036 27.5761 53.3144 26.6856C52.4252 25.7964 51.5322 25.2485 50.4814 24.8401C49.463 24.4446 48.2998 24.1732 46.5977 24.0969C44.8918 24.0194 44.3464 24 40.0013 24C35.6549 24 35.1108 24.0181 33.4036 24.0969Z" fill="#068DAA"/>
</g>
<defs>
<clipPath id="clip0_234_6806">
<rect width="32" height="32" fill="white" transform="translate(24 24)"/>
</clipPath>
</defs>
</svg>

