
<svg width="178" height="52" viewBox="0 0 178 52" fill="none" xmlns="http://www.w3.org/2000/svg">
<path d="M70.4198 21.5518C69.4385 21.58 68.4682 21.3426 67.6156 20.8658C66.8412 20.4115 66.2219 19.7421 65.8362 18.9425C65.4098 18.0468 65.1994 17.067 65.2213 16.0788V15.8096C65.2017 14.8345 65.4106 13.868 65.8318 12.9844C66.2152 12.19 66.8199 11.5181 67.5763 11.0461C68.3934 10.5584 69.337 10.3128 70.2933 10.3388C70.9917 10.3319 71.6862 10.441 72.3474 10.6615C72.9509 10.8591 73.5109 11.1665 73.9981 11.5676V14.0829H72.5306L72.3365 12.3903C72.1639 12.2677 71.9773 12.1651 71.7805 12.0847C71.5651 11.9965 71.3407 11.9313 71.111 11.8903C70.8507 11.8434 70.5864 11.8205 70.3216 11.8219C69.7115 11.8052 69.1116 11.9779 68.6077 12.3155C68.1152 12.664 67.7364 13.145 67.5174 13.7003C67.2537 14.3654 67.1263 15.0749 67.1424 15.7882V16.0874C67.1239 16.8189 67.259 17.5462 67.5392 18.2244C67.7751 18.7838 68.175 19.262 68.6884 19.5985C69.2188 19.9289 69.8373 20.0978 70.4656 20.0836C70.8014 20.0842 71.136 20.0447 71.4621 19.9661C71.7638 19.8994 72.0566 19.7983 72.3343 19.6648L72.5393 18.1368H73.9916V20.6371C73.506 20.936 72.9765 21.1601 72.4215 21.3017C71.7692 21.4751 71.0956 21.5592 70.4198 21.5518Z" fill="#068DAA"/>
<path d="M80.087 21.5517C79.3986 21.564 78.7159 21.4275 78.0874 21.1521C77.4992 20.8825 76.9782 20.4901 76.561 20.0023C76.1228 19.4857 75.7897 18.8916 75.5797 18.2521C75.3408 17.5326 75.223 16.7798 75.2308 16.0232V15.8586C75.2235 15.1094 75.3398 14.3639 75.5754 13.6511C75.7863 13.0107 76.1193 12.4153 76.5566 11.8966C76.9725 11.407 77.4938 11.0137 78.0831 10.7447C78.7087 10.4667 79.3892 10.3273 80.0761 10.3366C80.778 10.3255 81.4738 10.4648 82.115 10.7447C82.7051 11.0124 83.2266 11.4059 83.6414 11.8966C84.0754 12.4155 84.4041 13.0111 84.6096 13.6511C84.84 14.3649 84.9534 15.11 84.9454 15.8586V16.0232C84.9538 16.7747 84.8405 17.5227 84.6096 18.2393C84.405 18.8784 84.0763 19.4727 83.6414 19.9895C83.2252 20.4783 82.704 20.8709 82.115 21.1392C81.4777 21.4198 80.7856 21.5606 80.087 21.5517ZM80.087 20.0558C80.6834 20.0783 81.2697 19.9003 81.7487 19.5514C82.2053 19.1839 82.5425 18.6937 82.719 18.141C82.9429 17.457 83.0498 16.7414 83.0352 16.0232V15.8437C83.0484 15.135 82.9401 14.4293 82.7147 13.7558C82.5341 13.2057 82.1966 12.7177 81.7421 12.3496C81.2648 11.997 80.6777 11.8173 80.0805 11.841C79.4993 11.8215 78.9294 12.0014 78.469 12.3496C78.0152 12.7192 77.6767 13.2065 77.4921 13.7558C77.2615 14.4282 77.1501 15.1344 77.1628 15.8437V16.0232C77.1502 16.7388 77.2616 17.4512 77.4921 18.1303C77.6737 18.6845 78.0144 19.1757 78.4734 19.545C78.9355 19.8915 79.5054 20.0712 80.087 20.0536V20.0558Z" fill="#068DAA"/>
<path d="M85.9678 21.3936V20.2417L87.1802 20.028V11.8838L85.9678 11.6573V10.499H89.1274L94.2278 18.453L94.2736 18.4381V11.8838L92.8693 11.6573V10.499H97.2305V11.6573L96.0159 11.8838V21.3936H94.1908L88.9683 13.4695H88.9225V20.0174L90.3289 20.2311V21.3829L85.9678 21.3936Z" fill="#068DAA"/>
<path d="M100.811 21.3936V20.2417L102.023 20.028V11.9437H99.7882L99.6181 13.3349H98.1768V10.499H107.804V13.3349H106.354L106.195 11.9437H103.949V20.0174L105.163 20.2311V21.3829L100.811 21.3936Z" fill="#068DAA"/>
<path d="M108.827 21.3936V20.2417L110.042 20.028V11.8838L108.827 11.6573V10.499H113.173V11.6573L111.965 11.8838V20.0174L113.173 20.2311V21.3829L108.827 21.3936Z" fill="#068DAA"/>
<path d="M114.195 21.3936V20.2417L115.41 20.028V11.8838L114.195 11.6573V10.499H117.357L122.458 18.453L122.503 18.4381V11.8838L121.097 11.6573V10.499H125.458V11.6573L124.246 11.8838V21.3936H122.42L117.187 13.4695H117.141V20.0174L118.546 20.2311V21.3829L114.195 21.3936Z" fill="#068DAA"/>
<path d="M126.396 21.3936V20.2417L127.611 20.028V11.8838L126.396 11.6573V10.499H134.866V13.3049H133.368L133.235 11.9501H129.528V15.0338H133.429V16.4913H129.528V19.9575H133.453L133.584 18.5727H135.064V21.3936H126.396Z" fill="#068DAA"/>
<path d="M136.383 21.3936V20.2417L137.597 20.028V11.8838L136.383 11.6573V10.499H139.545L144.645 18.453L144.691 18.4381V11.8838L143.287 11.6573V10.499H147.648V11.6573L146.433 11.8838V21.3936H144.608L139.375 13.4695H139.329V20.0174L140.733 20.2311V21.3829L136.383 21.3936Z" fill="#068DAA"/>
<path d="M151.229 21.3936V20.2417L152.441 20.028V11.9437H150.204L150.036 13.3349H148.595V10.499H158.222V13.3349H156.772L156.604 11.9437H154.367V20.0174L155.581 20.2311V21.3829L151.229 21.3936Z" fill="#068DAA"/>
<path d="M157.58 21.3936V20.2417L158.389 20.1285L162.07 10.499H163.941L167.576 20.1285L168.385 20.2417V21.3936H164.852V20.2417L165.648 20.0986L165.059 18.3889H160.927L160.325 20.0986L161.126 20.2417V21.3936H157.58ZM161.42 16.9422H164.558L163.108 12.9075L163.008 12.6168H162.962L162.855 12.9224L161.42 16.9422Z" fill="#068DAA"/>
<path d="M169.292 21.3936V20.2417L170.507 20.028V11.8838L169.292 11.6573V10.499H173.736V11.6573L172.428 11.8838V19.949H175.901L176.03 18.3035H177.5V21.3936H169.292Z" fill="#068DAA"/>
<path d="M65.2373 39.7827V38.6309L66.4519 38.4172V30.273L65.2373 30.0486V28.8882H73.7045V31.6941H72.2086L72.0778 30.3392H68.3708V33.423H72.2719V34.8825H68.3752V38.3467H72.2849L72.4136 36.9619H73.8964V39.7827H65.2373Z" fill="#068DAA"/>
<path d="M80.4015 39.9409C79.4198 39.9688 78.4491 39.7322 77.5951 39.257C76.8216 38.8017 76.2025 38.1326 75.8157 37.3337C75.3892 36.4388 75.1788 35.4597 75.2008 34.4722V34.1944C75.1819 33.2191 75.3915 32.2526 75.8135 31.3692C76.1961 30.5749 76.8011 29.9035 77.558 29.4331C78.3759 28.9454 79.3202 28.6998 80.2772 28.7257C80.9754 28.7196 81.6696 28.8279 82.3313 29.0463C82.9331 29.2461 83.4921 29.5533 83.9799 29.9524V32.4784H82.5145L82.3161 30.7944C82.1424 30.6715 81.9552 30.5682 81.7578 30.4866C81.5433 30.3981 81.3196 30.3329 81.0906 30.2922C80.8295 30.2453 80.5645 30.2224 80.299 30.2238C79.6891 30.2087 79.0897 30.3813 78.5851 30.7174C78.0941 31.0675 77.7157 31.548 77.4948 32.1022C77.233 32.7678 77.1064 33.477 77.1219 34.1901V34.4829C77.1027 35.2144 77.2378 35.9419 77.5188 36.6199C77.7515 37.1781 78.1485 37.6557 78.6592 37.9919C79.1921 38.3215 79.813 38.4882 80.4429 38.4706C80.7786 38.4706 81.1131 38.4318 81.4395 38.3552C81.7418 38.2893 82.0347 38.1874 82.3117 38.0517L82.5298 36.5259H83.9799V39.0241C83.4954 39.3242 82.9665 39.5491 82.412 39.6908C81.7567 39.864 81.0802 39.9481 80.4015 39.9409Z" fill="#068DAA"/>
<path d="M90.0591 39.9408C89.37 39.9504 88.6873 39.8111 88.0595 39.5326C87.4707 39.2649 86.9495 38.873 86.5331 38.3851C86.0968 37.8667 85.7646 37.2721 85.554 36.6327C85.3169 35.918 85.2006 35.1702 85.2095 34.4187V34.2542C85.2021 33.5062 85.3192 32.762 85.5562 32.0509C85.7669 31.4109 86.0991 30.8156 86.5353 30.2964C86.9501 29.8057 87.4716 29.4122 88.0617 29.1445C88.6862 28.8655 89.3663 28.7261 90.0525 28.7363C90.7545 28.724 91.4506 28.8634 92.0914 29.1445C92.6822 29.4109 93.204 29.8047 93.6178 30.2964C94.053 30.8149 94.3824 31.4105 94.5882 32.0509C94.8188 32.7647 94.9321 33.5098 94.924 34.2584V34.423C94.9324 35.1738 94.8191 35.9211 94.5882 36.637C94.3823 37.2767 94.0529 37.8716 93.6178 38.3893C93.2025 38.8785 92.681 39.2705 92.0914 39.5369C91.4521 39.8152 90.7585 39.953 90.0591 39.9408ZM90.0591 38.4449C90.6559 38.4682 91.2427 38.2893 91.7207 37.9384C92.177 37.571 92.5136 37.0807 92.6889 36.528C92.913 35.8469 93.0206 35.1342 93.0072 34.4187V34.2392C93.0206 33.5306 92.9123 32.8247 92.6867 32.1513C92.5059 31.6008 92.1676 31.1127 91.712 30.7452C91.2376 30.3932 90.6537 30.2128 90.0591 30.2344C89.4783 30.2152 88.9089 30.3959 88.4498 30.7452C87.9948 31.1142 87.6555 31.6016 87.4707 32.1513C87.2406 32.8238 87.13 33.53 87.1436 34.2392V34.4187C87.1305 35.1342 87.2411 35.8466 87.4707 36.5258C87.654 37.0786 87.9944 37.5687 88.452 37.9384C88.9125 38.2829 89.48 38.4618 90.0591 38.4449Z" fill="#068DAA"/>
<path d="M100.253 39.9408C99.538 39.947 98.8258 39.8534 98.1378 39.663C97.4557 39.4637 96.8129 39.1531 96.2363 38.7441V36.2373H97.7257L97.9699 37.8615C98.274 38.0664 98.6108 38.2202 98.9664 38.3167C99.3844 38.4352 99.8178 38.4935 100.253 38.4898C100.643 38.5003 101.031 38.4357 101.396 38.2996C101.678 38.1914 101.923 38.005 102.1 37.7632C102.267 37.5232 102.354 37.2375 102.346 36.9468C102.351 36.6752 102.275 36.4081 102.128 36.1775C101.949 35.92 101.705 35.7124 101.42 35.5749C100.992 35.3622 100.541 35.1973 100.076 35.0833C99.3534 34.9053 98.6544 34.6442 97.9939 34.3055C97.4918 34.0552 97.0598 33.6884 96.7357 33.2369C96.4477 32.7795 96.3003 32.2504 96.3112 31.713C96.322 31.1756 96.4906 30.6526 96.7967 30.2066C97.1397 29.7382 97.6053 29.369 98.1443 29.1381C98.7721 28.8675 99.4517 28.732 100.137 28.7406C100.877 28.7208 101.615 28.8271 102.318 29.0548C102.9 29.2457 103.444 29.535 103.925 29.9096V32.2603H102.466L102.192 30.7345C101.942 30.5701 101.667 30.4447 101.378 30.3626C100.995 30.2533 100.597 30.2014 100.198 30.2088C99.8481 30.2027 99.5001 30.2667 99.1758 30.3968C98.8992 30.5074 98.6586 30.6899 98.4802 30.9247C98.3093 31.1617 98.2213 31.4466 98.2294 31.7367C98.2227 31.9927 98.2991 32.2441 98.4474 32.4548C98.644 32.6976 98.8987 32.8892 99.1888 33.0126C99.6418 33.2186 100.112 33.3873 100.593 33.5169C101.798 33.8317 102.712 34.2656 103.334 34.8183C103.637 35.0838 103.877 35.4108 104.038 35.7766C104.199 36.1423 104.276 36.538 104.265 36.9361C104.278 37.503 104.103 38.0586 103.766 38.5197C103.406 38.9904 102.92 39.3543 102.362 39.5711C101.691 39.8307 100.974 39.9564 100.253 39.9408Z" fill="#068DAA"/>
<path d="M105.322 39.7828V38.6309L106.537 38.4172V30.273L105.322 30.0486V28.8882H113.789V31.6941H112.3L112.169 30.3392H108.462V33.423H112.363V34.8825H108.469V38.3467H112.379L112.518 36.9661H113.999V39.787L105.322 39.7828Z" fill="#068DAA"/>
<path d="M115.31 39.7826V38.6308L116.524 38.4171V30.2728L115.31 30.0485V28.8881H120.449C121.18 28.8691 121.908 28.9979 122.586 29.2663C123.137 29.4862 123.608 29.8628 123.938 30.3476C124.184 30.7159 124.347 31.1316 124.416 31.5668C124.484 32.002 124.456 32.4465 124.334 32.8703C124.212 33.2941 123.999 33.6873 123.709 34.0233C123.418 34.3594 123.058 34.6305 122.652 34.8183C122.043 35.0929 121.379 35.2323 120.709 35.2265L118.447 35.25V38.4064L119.662 38.6201V39.772L115.31 39.7826ZM118.447 33.7819H120.369C121.095 33.7819 121.63 33.6394 121.973 33.3544C122.151 33.1972 122.29 33.0027 122.379 32.7854C122.469 32.5682 122.508 32.3339 122.492 32.1C122.505 31.8636 122.466 31.6274 122.379 31.4066C122.293 31.1857 122.159 30.9851 121.989 30.8178C121.651 30.5015 121.14 30.3434 120.462 30.3434H118.461L118.447 33.7819ZM122.549 39.7826L120.427 34.7692L122.229 34.4785L124.032 38.4363L124.904 38.6158V39.7826H122.549Z" fill="#068DAA"/>
<path d="M129.772 39.7827L126.13 30.1661L125.184 30.0465V28.8882H129.222V30.0486L128.215 30.2046L130.528 36.8422L130.733 37.5538H130.779L130.997 36.8507L133.341 30.1982L132.19 30.0486V28.8882H136.115V30.0486L135.153 30.1683L131.649 39.7849L129.772 39.7827Z" fill="#068DAA"/>
<path d="M136.965 39.7827V38.6309L138.179 38.4172V30.273L136.965 30.0486V28.8882H141.302V30.0486L140.096 30.273V38.4065L141.302 38.6202V39.7721L136.965 39.7827Z" fill="#068DAA"/>
<path d="M147.509 39.9409C146.528 39.9687 145.558 39.7322 144.704 39.257C143.93 38.8025 143.311 38.1332 142.925 37.3337C142.499 36.4388 142.288 35.4597 142.31 34.4722V34.1944C142.291 33.2193 142.499 32.2528 142.921 31.3693C143.303 30.5751 143.908 29.9036 144.665 29.4331C145.482 28.9454 146.426 28.6997 147.382 28.7257C148.08 28.7193 148.775 28.8276 149.436 29.0463C150.039 29.2456 150.599 29.5529 151.087 29.9524V32.4784H149.619L149.421 30.7944C149.248 30.6718 149.061 30.5686 148.865 30.4867C148.65 30.3984 148.425 30.3332 148.196 30.2922C147.935 30.2453 147.671 30.2224 147.406 30.2238C146.796 30.2081 146.197 30.3808 145.692 30.7175C145.2 31.0663 144.821 31.5472 144.602 32.1023C144.338 32.7674 144.211 33.4768 144.227 34.1901V34.4829C144.209 35.2143 144.344 35.9417 144.624 36.6199C144.857 37.1782 145.255 37.6558 145.766 37.9919C146.298 38.3218 146.919 38.4885 147.548 38.4706C147.884 38.4707 148.218 38.432 148.544 38.3552C148.847 38.2888 149.139 38.1869 149.417 38.0517L149.622 36.5259H151.074V39.0241C150.589 39.3246 150.059 39.5495 149.504 39.6908C148.854 39.8626 148.182 39.9468 147.509 39.9409Z" fill="#068DAA"/>
<path d="M152.312 39.7827V38.6309L153.527 38.4172V30.273L152.312 30.0486V28.8882H160.78V31.6941H159.284L159.153 30.3392H155.446V33.423H159.347V34.8825H155.45V38.3467H159.36L159.489 36.9619H160.972V39.7827H152.312Z" fill="#068DAA"/>
<path d="M29.3447 52.0002C43.0099 52.0002 54.0877 41.1436 54.0877 27.7513C54.0877 14.359 43.0099 3.50244 29.3447 3.50244C15.6794 3.50244 4.60156 14.359 4.60156 27.7513C4.60156 41.1436 15.6794 52.0002 29.3447 52.0002Z" fill="#C8E5EB"/>
<path fill-rule="evenodd" clip-rule="evenodd" d="M2.98836 36.8357C2.2887 35.5525 1.7052 34.2117 1.24458 32.8286L1.24328 32.8272C-0.341396 28.0261 -0.412833 22.8685 1.03829 18.0271C2.4894 13.1856 5.39571 8.88521 9.37806 5.68678C13.3604 2.48835 18.2339 0.540413 23.3628 0.0970846C28.4917 -0.346244 33.6379 0.735619 38.13 3.20154C38.1348 3.20762 38.1395 3.21369 38.1443 3.21977C43.8112 6.34611 48.0612 11.4584 50.04 17.5298C50.2726 18.2464 50.4718 18.9759 50.6375 19.7181L50.6419 19.7267C51.615 24.0809 51.3879 28.6105 49.984 32.8503C48.58 37.09 46.0497 40.8871 42.653 43.8515C39.2564 46.8159 35.1157 48.8407 30.6564 49.7181C26.1971 50.5954 21.5799 50.2936 17.2789 48.8437C16.5477 48.5972 15.8318 48.3187 15.1311 48.0081C9.93089 45.7079 5.65668 41.7814 2.97868 36.8443C4.1303 37.7681 5.36191 38.5919 6.6595 39.3061C8.77149 42.0115 11.4582 44.2348 14.5336 45.8219C14.2514 44.5626 14.0698 43.2836 13.9906 41.9967C13.9572 41.4809 13.9405 40.9623 13.9405 40.4409V40.2272C13.9963 33.6064 16.7196 27.2755 21.5172 22.6139C26.3147 17.9522 32.7977 15.3374 39.5536 15.3394C40.6955 15.3347 41.8364 15.4061 42.9684 15.5531C42.7187 12.4741 41.8484 9.48884 40.4233 6.76475C36.1559 3.45437 30.8619 1.67319 25.4194 1.71685C19.9739 1.76053 14.7074 3.6285 10.4947 7.01053C6.28199 10.3926 3.37653 15.0851 2.26086 20.3089C1.14533 25.532 1.88625 30.9719 4.36057 35.7253L4.36213 35.7265C5.01809 36.9835 5.79034 38.1788 6.66919 39.2975C5.37159 38.5833 4.13999 37.7595 2.98836 36.8357ZM41.9457 24.4196C42.5683 22.4795 42.929 20.4678 43.0186 18.4359L35.9796 24.4196H41.9457ZM39.5536 17.0383C38.2164 17.0381 36.8815 17.1482 35.5631 17.3674L34.8087 23.1566L41.8716 17.1516C41.1084 17.0789 40.3364 17.0383 39.5536 17.0383ZM37.9094 31.8842C39.3206 30.1352 40.4691 28.1972 41.3199 26.1292H33.9779L29.2765 30.1276L37.9094 31.8842ZM33.7576 17.7328C32.2487 18.1045 30.7806 18.6206 29.3746 19.2736L28.1295 28.8454L32.8287 24.8342L33.7576 17.7328ZM31.8104 37.246C33.5751 36.1611 35.1878 34.855 36.6076 33.3609L27.6302 31.5316L22.8111 35.6283L31.8104 37.246ZM19.1739 40.7956C22.7022 40.799 26.1869 40.0318 29.3746 38.5496L21.1124 37.0644L16.8559 40.6824C17.6191 40.755 18.3932 40.7956 19.1739 40.7956ZM27.4754 20.2609C25.9873 21.1214 24.5982 22.1367 23.3322 23.2891L21.5158 34.4572L26.1343 30.5187L27.4754 20.2609ZM19.4683 36.201L21.2127 25.4774C17.8667 29.3985 15.9297 34.2893 15.7002 39.3959L19.4683 36.201ZM16.5724 46.7451C19.4411 47.9017 22.5134 48.4956 25.6153 48.4932L25.6131 48.4804C29.2973 48.4799 32.9314 47.6438 36.2308 46.0374C39.5303 44.4311 42.4057 42.0982 44.6318 39.2213C46.858 36.3444 48.3745 33.0016 49.0627 29.4546C49.7509 25.9075 49.5921 22.2525 48.5987 18.7757C48.3966 18.0634 48.1604 17.3674 47.89 16.6878C46.874 14.1126 45.4012 11.7337 43.5397 9.66127C44.2035 11.662 44.605 13.7373 44.7347 15.8373C44.7696 16.3523 44.7848 16.8716 44.7848 17.393V17.6067C44.72 24.2232 41.9949 30.5476 37.2012 35.2072C32.4075 39.8667 25.9321 42.4853 19.1804 42.4946C18.0378 42.4992 16.8962 42.4278 15.7634 42.2809C15.8832 43.7913 16.1542 45.2866 16.5724 46.7451Z" fill="#068DAA"/>
</svg>