<svg width="62" height="70" viewBox="0 0 62 70" fill="none" xmlns="http://www.w3.org/2000/svg">
<path d="M35.4153 16.8701C35.4153 17.5231 34.8402 18.1073 34.0609 18.1073C33.2816 18.1073 32.7064 17.5231 32.7064 16.8701C32.7064 16.217 33.2816 15.6328 34.0609 15.6328C34.8402 15.6328 35.4153 16.217 35.4153 16.8701Z" stroke="#068DAA" stroke-linecap="round" stroke-linejoin="round"/>
<path d="M25.9909 38.8526C29.851 39.1308 37.7499 40.1094 40.5815 46.7965C43.4131 53.4835 40.5815 63.4065 33.4235 66.9796C26.2655 70.5528 19.3624 68.2751 10.459 61.7087C1.55564 55.1424 -0.548814 41.1879 2.0165 32.8971C4.58181 24.6062 12.5934 18.4819 16.0972 15.837M25.3437 20.9206C22.1929 20.6017 15.7549 18.9604 14.8224 12.0951C13.8899 5.22983 20.8724 0.999996 25.6771 1C30.4818 1 35.5023 4.01997 36.5024 10.5195C40.6763 10.8821 48.6842 12.2406 50.1713 14.965C51.6585 17.6895 52.6176 16.7514 53.108 17.6895C53.5984 18.6276 52.3874 18.576 51.2794 20.3485C50.1713 22.1209 50.9754 22.3461 44.7587 25.1504C38.542 27.9547 35.9827 33.5069 37.1888 42.3886M60.9526 37.7478C61.305 43.8322 59.6864 49.8724 56.3178 55.0445C52.9491 60.2167 47.9944 64.2689 42.1293 66.6486C36.2643 69.0282 29.7746 69.6194 23.5453 68.3414" stroke="#068DAA" stroke-linecap="round" stroke-linejoin="round"/>
</svg>
