<svg width="80" height="80" viewBox="0 0 80 80" fill="none" xmlns="http://www.w3.org/2000/svg">
<rect width="80" height="80" fill="#FDFDFD"/>
<path d="M44.415 21.8701C44.415 22.5231 43.8398 23.1073 43.0605 23.1073C42.2812 23.1073 41.7061 22.5231 41.7061 21.8701C41.7061 21.217 42.2812 20.6328 43.0605 20.6328C43.8398 20.6328 44.415 21.217 44.415 21.8701Z" stroke="#C8E5EB" stroke-linecap="round" stroke-linejoin="round"/>
<path d="M34.9909 43.8526C38.851 44.1308 46.7499 45.1094 49.5815 51.7965C52.4131 58.4835 49.5815 68.4065 42.4235 71.9796C35.2655 75.5528 28.3624 73.2751 19.459 66.7087C10.5556 60.1424 8.45119 46.1879 11.0165 37.8971C13.5818 29.6062 21.5934 23.4819 25.0972 20.837M34.3437 25.9206C31.1929 25.6017 24.7549 23.9604 23.8224 17.0951C22.8899 10.2298 29.8724 6 34.6771 6C39.4818 6 44.5023 9.01997 45.5024 15.5195C49.6763 15.8821 57.6842 17.2406 59.1713 19.965C60.6585 22.6895 61.6176 21.7514 62.108 22.6895C62.5984 23.6276 61.3874 23.576 60.2794 25.3485C59.1713 27.1209 59.9754 27.3461 53.7587 30.1504C47.542 32.9547 44.9827 38.5069 46.1888 47.3886M69.9526 42.7478C70.305 48.8322 68.6864 54.8724 65.3178 60.0445C61.9491 65.2167 56.9944 69.2689 51.1293 71.6486C45.2643 74.0282 38.7746 74.6194 32.5453 73.3414" stroke="#C8E5EB" stroke-linecap="round" stroke-linejoin="round"/>
</svg>
