<svg width="62" height="70" viewBox="0 0 62 70" fill="none" xmlns="http://www.w3.org/2000/svg">
<path d="M35.415 16.8701C35.415 17.5231 34.8398 18.1073 34.0605 18.1073C33.2812 18.1073 32.7061 17.5231 32.7061 16.8701C32.7061 16.217 33.2812 15.6328 34.0605 15.6328C34.8398 15.6328 35.415 16.217 35.415 16.8701Z" stroke="#C8E5EB" stroke-linecap="round" stroke-linejoin="round"/>
<path d="M25.9904 38.8526C29.8505 39.1308 37.7494 40.1094 40.581 46.7965C43.4126 53.4835 40.581 63.4065 33.423 66.9796C26.265 70.5528 19.3619 68.2751 10.4585 61.7087C1.55516 55.1424 -0.549302 41.1879 2.01601 32.8971C4.58133 24.6062 12.5929 18.4819 16.0967 15.837M25.3432 20.9206C22.1924 20.6017 15.7544 18.9604 14.8219 12.0951C13.8894 5.22983 20.8719 0.999996 25.6766 1C30.4813 1 35.5018 4.01997 36.5019 10.5195C40.6758 10.8821 48.6837 12.2406 50.1709 14.965C51.658 17.6895 52.6171 16.7514 53.1075 17.6895C53.5979 18.6276 52.3869 18.576 51.2789 20.3485C50.1709 22.1209 50.9749 22.3461 44.7582 25.1504C38.5415 27.9547 35.9822 33.5069 37.1883 42.3886M60.9521 37.7478C61.3045 43.8322 59.686 49.8724 56.3173 55.0445C52.9487 60.2167 47.9939 64.2689 42.1288 66.6486C36.2638 69.0282 29.7741 69.6194 23.5448 68.3414" stroke="#C8E5EB" stroke-linecap="round" stroke-linejoin="round"/>
</svg>
