<svg width="80" height="80" viewBox="0 0 80 80" fill="none" xmlns="http://www.w3.org/2000/svg">
<circle cx="40" cy="40" r="39.5" stroke="#C8E5EB"/>
<g clip-path="url(#clip0_234_6809)">
<path d="M52.3899 27.1231C51.5494 26.3884 48.162 24.0547 40.6127 24.0259C40.6127 24.0259 31.7114 23.5169 27.3722 27.2912C24.957 29.5817 24.1114 32.9335 24.0203 37.0871C23.9291 41.2408 23.8127 49.0343 31.7317 51.1423H31.7367L31.7317 54.3644C31.7317 54.3644 31.681 55.6706 32.5874 55.9347C33.681 56.2564 34.3241 55.2672 35.3722 54.1964C35.9443 53.6105 36.7393 52.7462 37.3367 52.0883C42.7494 52.5205 46.9165 51.5313 47.3874 51.3872C48.481 51.0511 54.6684 50.2972 55.6709 42.5133C56.7139 34.4893 55.1696 29.4137 52.3899 27.1231ZM53.3063 41.9419C52.4557 48.4437 47.438 48.8518 46.5114 49.1351C46.1165 49.2552 42.4608 50.1195 37.8633 49.8314C37.8633 49.8314 34.4355 53.7546 33.3671 54.7726C33.2 54.9311 33.0025 54.9983 32.8709 54.9647C32.6886 54.9215 32.638 54.715 32.638 54.4125C32.6431 53.9803 32.6684 49.0583 32.6684 49.0583C32.6633 49.0583 32.6684 49.0583 32.6684 49.0583C25.9696 47.2912 26.3646 40.6646 26.4405 37.1928C26.5165 33.721 27.2051 30.8782 29.2456 28.9671C32.9165 25.8122 40.476 26.2876 40.476 26.2876C46.8608 26.3116 49.919 28.1363 50.6279 28.7462C52.9823 30.6574 54.1823 35.2336 53.3063 41.9419Z" fill="#068DAA"/>
<path d="M43.7218 37.3108C43.4939 37.3108 43.3066 37.1427 43.2964 36.9266C43.2256 35.5533 42.542 34.8762 41.1496 34.809C40.9167 34.7994 40.7344 34.6073 40.7445 34.3816C40.7547 34.1607 40.9572 33.9878 41.1952 33.9975C43.0331 34.0887 44.0559 35.0875 44.1521 36.8834C44.1623 37.1043 43.98 37.2964 43.7471 37.306C43.7319 37.3108 43.7268 37.3108 43.7218 37.3108Z" fill="#068DAA"/>
<path d="M45.9083 38.0072C45.9032 38.0072 45.9032 38.0072 45.8982 38.0072C45.6602 38.0024 45.4779 37.8151 45.483 37.5942C45.5133 36.2113 45.0982 35.0924 44.207 34.1704C43.3209 33.2533 42.1007 32.7491 40.4906 32.6386C40.2577 32.6242 40.0804 32.4274 40.0956 32.2065C40.1108 31.9856 40.3184 31.8175 40.5513 31.8319C42.369 31.9568 43.8121 32.5618 44.8399 33.623C45.8678 34.6891 46.3741 36.0336 46.3387 37.6134C46.3285 37.8295 46.1412 38.0072 45.9083 38.0072Z" fill="#068DAA"/>
<path d="M48.1519 38.8377C47.919 38.8377 47.7266 38.66 47.7266 38.4343C47.7064 35.9901 46.9367 34.0502 45.4279 32.6576C43.919 31.265 42.0152 30.5496 39.7671 30.5352C39.5291 30.5352 39.3418 30.3527 39.3418 30.127C39.3418 29.9061 39.5342 29.7236 39.7671 29.7236C39.7671 29.7236 39.7671 29.7236 39.7722 29.7236C42.2481 29.738 44.3545 30.5304 46.0253 32.0766C47.7013 33.6228 48.557 35.7596 48.5823 38.4295C48.5823 38.6552 48.3899 38.8377 48.1519 38.8377Z" fill="#068DAA"/>
<path d="M41.2553 42.3288C41.2553 42.3288 41.8578 42.3768 42.1768 41.9974L42.8047 41.2483C43.1085 40.8738 43.8426 40.6385 44.5616 41.0178C45.0983 41.3108 45.6199 41.6229 46.1262 41.9638C46.6021 42.2951 47.5794 43.0683 47.5794 43.0683C48.0452 43.4428 48.1515 43.9854 47.8325 44.5617C47.8325 44.5665 47.8325 44.5713 47.8325 44.5713C47.4831 45.1427 47.0426 45.6613 46.5211 46.1031C46.5161 46.1079 46.5161 46.1079 46.511 46.1127C46.0604 46.4728 45.6148 46.6745 45.1794 46.7225C45.1135 46.7321 45.0477 46.7369 44.9869 46.7321C44.7945 46.7321 44.6021 46.7081 44.4199 46.6505L44.4047 46.6313C43.7312 46.4536 42.6123 46.0022 40.7439 45.0274C39.6654 44.4704 38.6376 43.827 37.6705 43.1019C37.1844 42.7417 36.7237 42.3528 36.2882 41.9398L36.2426 41.8966L36.1971 41.8534L36.1515 41.8102C36.1363 41.7957 36.1211 41.7813 36.1059 41.7669C35.6705 41.354 35.2604 40.9122 34.8806 40.456C34.1161 39.5388 33.4376 38.5641 32.8502 37.5412C31.8224 35.7693 31.3464 34.7081 31.1591 34.0695L31.1388 34.0551C31.0781 33.8822 31.0528 33.6997 31.0528 33.5172C31.0477 33.4548 31.0528 33.3924 31.0629 33.3348C31.1186 32.9218 31.3312 32.4992 31.7059 32.0719C31.711 32.0671 31.711 32.0671 31.7161 32.0623C32.1819 31.5677 32.7237 31.1499 33.3312 30.8186C33.3363 30.8186 33.3414 30.8138 33.3414 30.8138C33.949 30.516 34.5262 30.6169 34.9161 31.0538C34.9211 31.0587 35.7312 31.9806 36.0806 32.432C36.4401 32.9122 36.7743 33.4068 37.0781 33.9158C37.4781 34.5977 37.23 35.2939 36.835 35.5821L36.0452 36.1775C35.6452 36.4848 35.6958 37.0514 35.6958 37.0514C35.6958 37.0514 36.8654 41.2675 41.2553 42.3288Z" fill="#068DAA"/>
</g>
<defs>
<clipPath id="clip0_234_6809">
<rect width="32" height="32" fill="white" transform="translate(24 24)"/>
</clipPath>
</defs>
</svg>
