<svg width="70" height="68" viewBox="0 0 70 68" fill="none" xmlns="http://www.w3.org/2000/svg">
<path d="M32.9833 46.5838C40.4944 46.5838 46.5833 40.4949 46.5833 32.9838C46.5833 25.4727 40.4944 19.3838 32.9833 19.3838C25.4722 19.3838 19.3833 25.4727 19.3833 32.9838C19.3833 40.4949 25.4722 46.5838 32.9833 46.5838Z" stroke="#068DAA" stroke-linecap="round" stroke-linejoin="round"/>
<path d="M58.5 18C62.0899 18 65 15.0899 65 11.5C65 7.91015 62.0899 5 58.5 5C54.9101 5 52 7.91015 52 11.5C52 15.0899 54.9101 18 58.5 18Z" stroke="#068DAA" stroke-linecap="round" stroke-linejoin="round"/>
<path d="M30.7164 10.3167C33.2201 10.3167 35.2498 8.28702 35.2498 5.78333C35.2498 3.27964 33.2201 1.25 30.7164 1.25C28.2127 1.25 26.1831 3.27964 26.1831 5.78333C26.1831 8.28702 28.2127 10.3167 30.7164 10.3167Z" stroke="#068DAA" stroke-linecap="round" stroke-linejoin="round"/>
<path d="M8.04993 23.9163C10.5536 23.9163 12.5833 21.8866 12.5833 19.3829C12.5833 16.8793 10.5536 14.8496 8.04993 14.8496C5.54624 14.8496 3.5166 16.8793 3.5166 19.3829C3.5166 21.8866 5.54624 23.9163 8.04993 23.9163Z" stroke="#068DAA" stroke-linecap="round" stroke-linejoin="round"/>
<path d="M6.91667 57.9163C10.0463 57.9163 12.5833 55.3793 12.5833 52.2497C12.5833 49.1201 10.0463 46.583 6.91667 46.583C3.78705 46.583 1.25 49.1201 1.25 52.2497C1.25 55.3793 3.78705 57.9163 6.91667 57.9163Z" stroke="#068DAA" stroke-linecap="round" stroke-linejoin="round"/>
<path d="M30.7164 66.9837C33.2201 66.9837 35.2498 64.954 35.2498 62.4503C35.2498 59.9466 33.2201 57.917 30.7164 57.917C28.2127 57.917 26.1831 59.9466 26.1831 62.4503C26.1831 64.954 28.2127 66.9837 30.7164 66.9837Z" stroke="#068DAA" stroke-linecap="round" stroke-linejoin="round"/>
<path d="M61.3166 60.2495C65.6981 60.2495 69.25 56.6976 69.25 52.3161C69.25 47.9347 65.6981 44.3828 61.3166 44.3828C56.9352 44.3828 53.3833 47.9347 53.3833 52.3161C53.3833 56.6976 56.9352 60.2495 61.3166 60.2495Z" stroke="#068DAA" stroke-linecap="round" stroke-linejoin="round"/>
<path d="M45 39.5L55.6498 46.65" stroke="#068DAA" stroke-linecap="round" stroke-linejoin="round"/>
<path d="M30.7168 46.583V57.9163" stroke="#068DAA" stroke-linecap="round" stroke-linejoin="round"/>
<path d="M20.5169 39.7832L11.4502 47.7165" stroke="#068DAA" stroke-linecap="round" stroke-linejoin="round"/>
<path d="M20.5168 26.1837L12.5835 21.6504" stroke="#068DAA" stroke-linecap="round" stroke-linejoin="round"/>
<path d="M43.5 24L53.5 16" stroke="#068DAA" stroke-linecap="round" stroke-linejoin="round"/>
<path d="M32.9834 19.3831L31.8501 10.3164" stroke="#068DAA" stroke-linecap="round" stroke-linejoin="round"/>
</svg>
