<svg width="80" height="80" viewBox="0 0 80 80" fill="none" xmlns="http://www.w3.org/2000/svg">
<rect width="80" height="80" fill="#FDFDFD"/>
<path d="M37.9828 51.5838C45.4939 51.5838 51.5828 45.4949 51.5828 37.9838C51.5828 30.4727 45.4939 24.3838 37.9828 24.3838C30.4717 24.3838 24.3828 30.4727 24.3828 37.9838C24.3828 45.4949 30.4717 51.5838 37.9828 51.5838Z" stroke="#C8E5EB" stroke-linecap="round" stroke-linejoin="round"/>
<path d="M63.5 23C67.0899 23 70 20.0899 70 16.5C70 12.9101 67.0899 10 63.5 10C59.9101 10 57 12.9101 57 16.5C57 20.0899 59.9101 23 63.5 23Z" stroke="#C8E5EB" stroke-linecap="round" stroke-linejoin="round"/>
<path d="M35.7169 15.3167C38.2206 15.3167 40.2503 13.287 40.2503 10.7833C40.2503 8.27964 38.2206 6.25 35.7169 6.25C33.2132 6.25 31.1836 8.27964 31.1836 10.7833C31.1836 13.287 33.2132 15.3167 35.7169 15.3167Z" stroke="#C8E5EB" stroke-linecap="round" stroke-linejoin="round"/>
<path d="M13.0499 28.9163C15.5536 28.9163 17.5833 26.8866 17.5833 24.3829C17.5833 21.8793 15.5536 19.8496 13.0499 19.8496C10.5462 19.8496 8.5166 21.8793 8.5166 24.3829C8.5166 26.8866 10.5462 28.9163 13.0499 28.9163Z" stroke="#C8E5EB" stroke-linecap="round" stroke-linejoin="round"/>
<path d="M11.9167 62.9163C15.0463 62.9163 17.5833 60.3793 17.5833 57.2497C17.5833 54.1201 15.0463 51.583 11.9167 51.583C8.78705 51.583 6.25 54.1201 6.25 57.2497C6.25 60.3793 8.78705 62.9163 11.9167 62.9163Z" stroke="#C8E5EB" stroke-linecap="round" stroke-linejoin="round"/>
<path d="M35.7169 71.9837C38.2206 71.9837 40.2503 69.954 40.2503 67.4503C40.2503 64.9466 38.2206 62.917 35.7169 62.917C33.2132 62.917 31.1836 64.9466 31.1836 67.4503C31.1836 69.954 33.2132 71.9837 35.7169 71.9837Z" stroke="#C8E5EB" stroke-linecap="round" stroke-linejoin="round"/>
<path d="M66.3161 65.2495C70.6976 65.2495 74.2495 61.6976 74.2495 57.3161C74.2495 52.9347 70.6976 49.3828 66.3161 49.3828C61.9347 49.3828 58.3828 52.9347 58.3828 57.3161C58.3828 61.6976 61.9347 65.2495 66.3161 65.2495Z" stroke="#C8E5EB" stroke-linecap="round" stroke-linejoin="round"/>
<path d="M50 44.5L60.6498 51.65" stroke="#C8E5EB" stroke-linecap="round" stroke-linejoin="round"/>
<path d="M35.7168 51.583V62.9163" stroke="#C8E5EB" stroke-linecap="round" stroke-linejoin="round"/>
<path d="M25.5169 44.7832L16.4502 52.7165" stroke="#C8E5EB" stroke-linecap="round" stroke-linejoin="round"/>
<path d="M25.5173 31.1837L17.584 26.6504" stroke="#C8E5EB" stroke-linecap="round" stroke-linejoin="round"/>
<path d="M48.5 29L58.5 21" stroke="#C8E5EB" stroke-linecap="round" stroke-linejoin="round"/>
<path d="M37.9829 24.3831L36.8496 15.3164" stroke="#C8E5EB" stroke-linecap="round" stroke-linejoin="round"/>
</svg>
