<svg width="80" height="80" viewBox="0 0 80 80" fill="none" xmlns="http://www.w3.org/2000/svg">
<path d="M37.9833 51.5834C45.4944 51.5834 51.5833 45.4944 51.5833 37.9834C51.5833 30.4723 45.4944 24.3834 37.9833 24.3834C30.4722 24.3834 24.3833 30.4723 24.3833 37.9834C24.3833 45.4944 30.4722 51.5834 37.9833 51.5834Z" stroke="#068DAA" stroke-linecap="round" stroke-linejoin="round"/>
<path d="M63.5 23C67.0899 23 70 20.0899 70 16.5C70 12.9101 67.0899 10 63.5 10C59.9101 10 57 12.9101 57 16.5C57 20.0899 59.9101 23 63.5 23Z" stroke="#068DAA" stroke-linecap="round" stroke-linejoin="round"/>
<path d="M35.7164 15.3167C38.2201 15.3167 40.2498 13.287 40.2498 10.7833C40.2498 8.27964 38.2201 6.25 35.7164 6.25C33.2127 6.25 31.1831 8.27964 31.1831 10.7833C31.1831 13.287 33.2127 15.3167 35.7164 15.3167Z" stroke="#068DAA" stroke-linecap="round" stroke-linejoin="round"/>
<path d="M13.0499 28.9166C15.5536 28.9166 17.5833 26.887 17.5833 24.3833C17.5833 21.8796 15.5536 19.85 13.0499 19.85C10.5462 19.85 8.5166 21.8796 8.5166 24.3833C8.5166 26.887 10.5462 28.9166 13.0499 28.9166Z" stroke="#068DAA" stroke-linecap="round" stroke-linejoin="round"/>
<path d="M11.9167 62.9166C15.0463 62.9166 17.5833 60.3796 17.5833 57.25C17.5833 54.1204 15.0463 51.5833 11.9167 51.5833C8.78705 51.5833 6.25 54.1204 6.25 57.25C6.25 60.3796 8.78705 62.9166 11.9167 62.9166Z" stroke="#068DAA" stroke-linecap="round" stroke-linejoin="round"/>
<path d="M35.7164 71.9833C38.2201 71.9833 40.2498 69.9537 40.2498 67.45C40.2498 64.9463 38.2201 62.9167 35.7164 62.9167C33.2127 62.9167 31.1831 64.9463 31.1831 67.45C31.1831 69.9537 33.2127 71.9833 35.7164 71.9833Z" stroke="#068DAA" stroke-linecap="round" stroke-linejoin="round"/>
<path d="M66.3166 65.25C70.6981 65.25 74.25 61.6981 74.25 57.3166C74.25 52.9352 70.6981 49.3833 66.3166 49.3833C61.9352 49.3833 58.3833 52.9352 58.3833 57.3166C58.3833 61.6981 61.9352 65.25 66.3166 65.25Z" stroke="#068DAA" stroke-linecap="round" stroke-linejoin="round"/>
<path d="M50 44.5L60.6498 51.65" stroke="#068DAA" stroke-linecap="round" stroke-linejoin="round"/>
<path d="M35.7168 51.5833V62.9166" stroke="#068DAA" stroke-linecap="round" stroke-linejoin="round"/>
<path d="M25.5169 44.7833L16.4502 52.7167" stroke="#068DAA" stroke-linecap="round" stroke-linejoin="round"/>
<path d="M25.5168 31.1834L17.5835 26.65" stroke="#068DAA" stroke-linecap="round" stroke-linejoin="round"/>
<path d="M48.5 29L58.5 21" stroke="#068DAA" stroke-linecap="round" stroke-linejoin="round"/>
<path d="M37.9834 24.3833L36.8501 15.3167" stroke="#068DAA" stroke-linecap="round" stroke-linejoin="round"/>
</svg>
