<svg width="80" height="80" viewBox="0 0 80 80" fill="none" xmlns="http://www.w3.org/2000/svg">
<circle cx="40" cy="40" r="39.5" stroke="#C8E5EB"/>
<path d="M25.0439 54.8654L27.1672 47.1399C25.5279 44.2953 24.8732 40.9892 25.3044 37.7345C25.7356 34.4798 27.2288 31.4584 29.5522 29.1388C31.8757 26.8192 34.8996 25.3311 38.155 24.9053C41.4104 24.4795 44.7154 25.1398 47.5573 26.7837C50.3992 28.4277 52.6192 30.9635 53.873 33.9978C55.1268 37.0321 55.3444 40.3953 54.4919 43.5658C53.6395 46.7364 51.7647 49.537 49.1582 51.5334C46.5518 53.5298 43.3595 54.6104 40.0764 54.6076V54.6076C37.5856 54.6065 35.1348 53.9807 32.9484 52.7877L25.0439 54.8654ZM33.3154 50.0942L33.7704 50.3626C35.6798 51.4926 37.8576 52.0891 40.0764 52.09C42.8239 52.0897 45.4935 51.1764 47.6655 49.4936C49.8375 47.8108 51.3887 45.454 52.0753 42.7935C52.7619 40.1331 52.545 37.32 51.4586 34.7963C50.3723 32.2726 48.4781 30.1814 46.0738 28.8515C43.6695 27.5216 40.8915 27.0283 38.1763 27.4492C35.4612 27.8701 32.9629 29.1813 31.0741 31.1768C29.1853 33.1722 28.0132 35.7387 27.7419 38.4729C27.4707 41.207 28.1156 43.9538 29.5755 46.2815L29.8788 46.7501L28.6261 51.3241L33.3154 50.0942Z" fill="#068DAA"/>
<path fill-rule="evenodd" clip-rule="evenodd" d="M36.356 33.4541C36.0755 32.8323 35.7828 32.8202 35.5174 32.8095C35.299 32.7959 35.0503 32.7959 34.8031 32.7959C34.6142 32.8008 34.4283 32.8448 34.2573 32.9252C34.0864 33.0056 33.9339 33.1206 33.8097 33.263C33.4669 33.6361 32.5039 34.5369 32.5039 36.3705C32.5039 38.204 33.84 39.9754 34.0205 40.2241C34.201 40.4729 36.5987 44.3553 40.3902 45.8492C43.5386 47.0912 44.1816 46.844 44.8626 46.7819C45.5435 46.7197 47.0677 45.881 47.3771 45.0105C47.6865 44.14 47.6804 43.3938 47.5955 43.2391C47.5105 43.0844 47.2527 42.9904 46.8812 42.8039C46.5096 42.6173 44.676 41.7165 44.3348 41.5906C43.9936 41.4647 43.7449 41.404 43.4961 41.7771C43.2474 42.1502 42.5331 42.9904 42.3162 43.2376C42.0994 43.4848 41.881 43.5167 41.5079 43.3301C41.1348 43.1436 39.9352 42.7508 38.5111 41.4814C37.6966 40.7297 36.9975 39.862 36.4364 38.9062C36.2195 38.5347 36.4137 38.333 36.6002 38.1479C36.7867 37.9629 36.9733 37.7127 37.1598 37.4958C37.3132 37.3076 37.4383 37.0982 37.5314 36.874C37.581 36.7713 37.6041 36.658 37.5988 36.5441C37.5935 36.4302 37.5599 36.3195 37.5011 36.2219C37.4116 36.0338 36.6867 34.1912 36.356 33.4541Z" fill="#068DAA"/>
</svg>
